<svg version="1.1" id="Layer_1" xmlns:x="ns_extend;" xmlns:i="ns_ai;" xmlns:graph="ns_graphs;" xmlns="http://www.w3.org/2000/svg" xmlns:xlink="http://www.w3.org/1999/xlink" x="0px" y="0px" viewBox="0 0 191.7 50" style="enable-background:new 0 0 191.7 50;" xml:space="preserve">
 <style type="text/css">
  .st0{fill:#FFFFFF;}
 </style>
 <metadata>
  <sfw xmlns="ns_sfw;">
   <slices>
   </slices>
   <sliceSourceBounds bottomLeftOrigin="true" height="50" width="191.7" x="-244" y="-206.1">
   </sliceSourceBounds>
  </sfw>
 </metadata>
 <g>
  <path class="st0" d="M99.2,0H89v50h10.2V0z">
  </path>
  <path class="st0" d="M0,0.1h10.8v22.4L31,0.1h13.1L25.6,20.6L45.3,50H32.4L18,28.9l-7.2,7.9V50H0V0.1z">
  </path>
  <path class="st0" d="M85.1,49.5H80c-4.6,0-6.9-2-6.8-6c-1.4,2.1-3,3.7-5,4.8c-2,1.1-4.3,1.7-7.2,1.7c-4.1,0-7.5-0.9-10-2.8
		c-2.5-1.9-3.8-4.6-3.8-8c0-3.9,1.5-6.9,4.3-9c2.9-2.1,7.2-3.2,12.7-3.2h7.4v-1.8c0-1.7-0.6-3-1.9-3.9c-1.3-1-2.9-1.5-5.1-1.5
		c-1.9,0-3.4,0.4-4.6,1.2c-1.2,0.8-1.9,1.9-2.1,3.3h-9.9c0.3-3.7,2-6.6,5.1-8.7c3-2.1,7-3.2,12.1-3.2c5.2,0,9.3,1.1,12.1,3.4
		c2.9,2.3,4.3,5.6,4.3,9.9v12.9c0,0.9,0.2,1.5,0.6,1.9c0.4,0.3,1,0.5,1.8,0.5h1.1V49.5z M64.1,33.6c-2.1,0-3.8,0.4-5,1.3
		c-1.1,0.8-1.7,2-1.7,3.5c0,1.3,0.5,2.3,1.5,3.1c1,0.8,2.3,1.1,4,1.1c2.7,0,4.7-0.7,6.3-2.2c1.5-1.5,2.3-3.5,2.4-6.1v-0.7H64.1z">
  </path>
  <path class="st0" d="M112.7,37.3c0.2,1.6,0.9,2.9,2.4,3.9c1.5,1,3.3,1.5,5.5,1.5c2.1,0,3.9-0.3,5.1-1c1.3-0.7,1.9-1.7,1.9-3
		c0-0.9-0.3-1.7-0.9-2.1c-0.6-0.5-1.4-0.8-2.5-1c-1-0.3-2.8-0.5-5.2-0.8c-3.3-0.4-6-1-8.1-1.7c-2.1-0.7-3.9-1.7-5.2-3.2
		c-1.3-1.5-1.9-3.3-1.9-5.7s0.6-4.5,1.9-6.3c1.4-1.9,3.2-3.3,5.6-4.3c2.4-1,5.2-1.5,8.3-1.5c5.1,0.1,9.1,1.1,12.2,3.2
		c3.1,2.1,4.8,5,5.1,8.7h-9.7c-0.2-1.4-0.9-2.5-2.2-3.4c-1.3-0.9-3-1.3-5.1-1.3c-1.9,0-3.5,0.4-4.7,1.1c-1.1,0.7-1.7,1.7-1.7,2.9
		c0,0.9,0.3,1.5,0.9,1.9c0.6,0.4,1.5,0.7,2.5,0.9c1,0.2,2.7,0.4,5.1,0.6c5,0.6,8.8,1.7,11.4,3.2c2.7,1.5,4,4.2,4,7.9
		c0,2.4-0.7,4.5-2.1,6.3c-1.4,1.8-3.3,3.2-5.9,4.2c-2.5,0.9-5.4,1.5-8.7,1.5c-5.1,0-9.3-1.1-12.5-3.4c-3.2-2.3-4.9-5.4-5.1-9.3
		H112.7z">
  </path>
  <path class="st0" d="M173.3,16.8c-2.8-2.6-6.4-4-10.8-4c-4.5,0-8.2,1.7-11,5V0h-10.2v50h10.2V31.2c0-3.2,0.7-5.6,2.1-7.4
		c1.5-1.8,3.5-2.6,6.1-2.6c2.5,0,4.4,0.8,5.6,2.4c1.3,1.6,1.9,3.8,1.9,6.9V50h10.2V30.1C177.6,23.9,176.2,19.5,173.3,16.8z">
  </path>
  <path class="st0" d="M181.5,13.2h10.2v36.7h-10.2V13.2z">
  </path>
  <path class="st0" d="M190.1,1.5C189.2,0.5,188,0,186.5,0c-1.4,0-2.7,0.5-3.7,1.5c-0.9,0.9-1.5,2.1-1.5,3.5s0.5,2.6,1.5,3.5
		c1,0.9,2.2,1.5,3.7,1.5c1.4,0,2.7-0.5,3.6-1.5c0.9-1,1.5-2.1,1.5-3.5S191.1,2.3,190.1,1.5z">
  </path>
 </g>
</svg>